<svg id="visual" viewBox="0 0 900 600" width="900" height="600" xmlns="http://www.w3.org/2000/svg" xmlns:xlink="http://www.w3.org/1999/xlink" version="1.1"><g stroke-width="0.5" stroke-linejoin="bevel"><path d="M428 331L436 359L513 343Z" fill="#00101c" stroke="#121212"></path><path d="M436 359L521 424L513 343Z" fill="#00407c" stroke="#121212"></path><path d="M513 343L475 221L428 331Z" fill="#00407c" stroke="#121212"></path><path d="M558 429L584 326L513 343Z" fill="#003768" stroke="#121212"></path><path d="M513 343L584 326L475 221Z" fill="#002440" stroke="#121212"></path><path d="M521 424L558 429L513 343Z" fill="#011b2d" stroke="#121212"></path><path d="M475 221L421 180L428 331Z" fill="#002440" stroke="#121212"></path><path d="M421 180L306 313L428 331Z" fill="#002d54" stroke="#121212"></path><path d="M428 331L306 313L436 359Z" fill="#002d54" stroke="#121212"></path><path d="M436 359L382 486L521 424Z" fill="#004991" stroke="#121212"></path><path d="M307 468L382 486L436 359Z" fill="#1063d1" stroke="#121212"></path><path d="M521 424L527 509L558 429Z" fill="#002d54" stroke="#121212"></path><path d="M382 486L527 509L521 424Z" fill="#216ce7" stroke="#121212"></path><path d="M715 393L671 310L584 326Z" fill="#00407c" stroke="#121212"></path><path d="M584 326L634 177L475 221Z" fill="#004991" stroke="#121212"></path><path d="M475 221L524 80L421 180Z" fill="#1063d1" stroke="#121212"></path><path d="M632 461L584 326L558 429Z" fill="#0052a6" stroke="#121212"></path><path d="M527 509L632 461L558 429Z" fill="#1063d1" stroke="#121212"></path><path d="M306 313L272 389L436 359Z" fill="#00101c" stroke="#121212"></path><path d="M272 389L307 468L436 359Z" fill="#011b2d" stroke="#121212"></path><path d="M524 80L370 142L421 180Z" fill="#00101c" stroke="#121212"></path><path d="M421 180L289 157L306 313Z" fill="#00407c" stroke="#121212"></path><path d="M306 313L213 395L272 389Z" fill="#011b2d" stroke="#121212"></path><path d="M671 310L634 177L584 326Z" fill="#1063d1" stroke="#121212"></path><path d="M634 177L565 121L475 221Z" fill="#003768" stroke="#121212"></path><path d="M671 310L664 180L634 177Z" fill="#002d54" stroke="#121212"></path><path d="M634 177L705 91L565 121Z" fill="#0052a6" stroke="#121212"></path><path d="M632 461L715 393L584 326Z" fill="#216ce7" stroke="#121212"></path><path d="M671 310L763 275L664 180Z" fill="#011b2d" stroke="#121212"></path><path d="M370 142L289 157L421 180Z" fill="#0052a6" stroke="#121212"></path><path d="M560 0L524 80L565 121Z" fill="#216ce7" stroke="#121212"></path><path d="M565 121L524 80L475 221Z" fill="#002d54" stroke="#121212"></path><path d="M370 142L300 122L289 157Z" fill="#003768" stroke="#121212"></path><path d="M184 264L213 395L306 313Z" fill="#0052a6" stroke="#121212"></path><path d="M272 389L213 395L307 468Z" fill="#002d54" stroke="#121212"></path><path d="M414 600L496 600L527 509Z" fill="#004991" stroke="#121212"></path><path d="M590 600L685 506L632 461Z" fill="#003768" stroke="#121212"></path><path d="M632 461L685 506L715 393Z" fill="#005bbb" stroke="#121212"></path><path d="M414 600L527 509L382 486Z" fill="#011b2d" stroke="#121212"></path><path d="M288 600L382 486L307 468Z" fill="#002d54" stroke="#121212"></path><path d="M288 600L414 600L382 486Z" fill="#00407c" stroke="#121212"></path><path d="M419 0L300 122L370 142Z" fill="#1063d1" stroke="#121212"></path><path d="M207 201L184 264L306 313Z" fill="#1063d1" stroke="#121212"></path><path d="M590 600L632 461L527 509Z" fill="#1063d1" stroke="#121212"></path><path d="M496 600L590 600L527 509Z" fill="#004991" stroke="#121212"></path><path d="M207 201L306 313L289 157Z" fill="#216ce7" stroke="#121212"></path><path d="M178 133L207 201L289 157Z" fill="#004991" stroke="#121212"></path><path d="M760 431L763 275L715 393Z" fill="#1063d1" stroke="#121212"></path><path d="M715 393L763 275L671 310Z" fill="#0052a6" stroke="#121212"></path><path d="M685 506L760 431L715 393Z" fill="#00407c" stroke="#121212"></path><path d="M212 533L288 600L307 468Z" fill="#0052a6" stroke="#121212"></path><path d="M68 488L212 533L213 395Z" fill="#002d54" stroke="#121212"></path><path d="M213 395L212 533L307 468Z" fill="#002d54" stroke="#121212"></path><path d="M560 0L463 0L524 80Z" fill="#003768" stroke="#121212"></path><path d="M524 80L419 0L370 142Z" fill="#002440" stroke="#121212"></path><path d="M776 122L705 91L664 180Z" fill="#00101c" stroke="#121212"></path><path d="M664 180L705 91L634 177Z" fill="#00101c" stroke="#121212"></path><path d="M463 0L419 0L524 80Z" fill="#00101c" stroke="#121212"></path><path d="M300 122L178 133L289 157Z" fill="#0052a6" stroke="#121212"></path><path d="M705 91L560 0L565 121Z" fill="#002d54" stroke="#121212"></path><path d="M763 275L788 183L664 180Z" fill="#00101c" stroke="#121212"></path><path d="M900 297L788 183L763 275Z" fill="#0052a6" stroke="#121212"></path><path d="M86 170L89 271L184 264Z" fill="#002440" stroke="#121212"></path><path d="M221 0L178 133L300 122Z" fill="#011b2d" stroke="#121212"></path><path d="M685 506L770 532L760 431Z" fill="#00101c" stroke="#121212"></path><path d="M590 600L709 600L685 506Z" fill="#011b2d" stroke="#121212"></path><path d="M709 600L770 532L685 506Z" fill="#00101c" stroke="#121212"></path><path d="M900 381L900 297L763 275Z" fill="#011b2d" stroke="#121212"></path><path d="M788 183L776 122L664 180Z" fill="#1063d1" stroke="#121212"></path><path d="M705 91L696 0L560 0Z" fill="#003768" stroke="#121212"></path><path d="M212 533L206 600L288 600Z" fill="#003768" stroke="#121212"></path><path d="M100 600L206 600L212 533Z" fill="#003768" stroke="#121212"></path><path d="M86 170L184 264L207 201Z" fill="#005bbb" stroke="#121212"></path><path d="M184 264L89 271L213 395Z" fill="#00101c" stroke="#121212"></path><path d="M419 0L273 0L300 122Z" fill="#003768" stroke="#121212"></path><path d="M814 0L696 0L705 91Z" fill="#005bbb" stroke="#121212"></path><path d="M89 271L61 389L213 395Z" fill="#005bbb" stroke="#121212"></path><path d="M273 0L221 0L300 122Z" fill="#005bbb" stroke="#121212"></path><path d="M178 133L86 170L207 201Z" fill="#003768" stroke="#121212"></path><path d="M66 118L86 170L178 133Z" fill="#0052a6" stroke="#121212"></path><path d="M89 271L0 356L61 389Z" fill="#002d54" stroke="#121212"></path><path d="M900 381L763 275L760 431Z" fill="#002440" stroke="#121212"></path><path d="M788 183L900 97L776 122Z" fill="#003768" stroke="#121212"></path><path d="M776 122L814 0L705 91Z" fill="#002d54" stroke="#121212"></path><path d="M61 389L68 488L213 395Z" fill="#003768" stroke="#121212"></path><path d="M900 524L900 381L760 431Z" fill="#002d54" stroke="#121212"></path><path d="M900 297L900 186L788 183Z" fill="#002440" stroke="#121212"></path><path d="M709 600L840 600L770 532Z" fill="#00101c" stroke="#121212"></path><path d="M770 532L900 524L760 431Z" fill="#00101c" stroke="#121212"></path><path d="M68 488L100 600L212 533Z" fill="#1063d1" stroke="#121212"></path><path d="M72 0L66 118L178 133Z" fill="#00101c" stroke="#121212"></path><path d="M0 280L0 356L89 271Z" fill="#011b2d" stroke="#121212"></path><path d="M840 600L900 524L770 532Z" fill="#00101c" stroke="#121212"></path><path d="M61 389L0 521L68 488Z" fill="#00407c" stroke="#121212"></path><path d="M68 488L0 521L100 600Z" fill="#216ce7" stroke="#121212"></path><path d="M0 280L89 271L0 241Z" fill="#0052a6" stroke="#121212"></path><path d="M0 241L89 271L86 170Z" fill="#003768" stroke="#121212"></path><path d="M900 97L814 0L776 122Z" fill="#005bbb" stroke="#121212"></path><path d="M66 118L0 241L86 170Z" fill="#00101c" stroke="#121212"></path><path d="M900 186L900 97L788 183Z" fill="#002440" stroke="#121212"></path><path d="M840 600L900 600L900 524Z" fill="#216ce7" stroke="#121212"></path><path d="M0 356L0 521L61 389Z" fill="#002440" stroke="#121212"></path><path d="M221 0L72 0L178 133Z" fill="#002d54" stroke="#121212"></path><path d="M66 118L0 75L0 241Z" fill="#00407c" stroke="#121212"></path><path d="M72 0L0 75L66 118Z" fill="#005bbb" stroke="#121212"></path><path d="M0 521L0 600L100 600Z" fill="#00101c" stroke="#121212"></path><path d="M900 97L900 0L814 0Z" fill="#005bbb" stroke="#121212"></path><path d="M72 0L0 0L0 75Z" fill="#002d54" stroke="#121212"></path></g></svg>