<svg id="visual" viewBox="0 0 900 600" width="900" height="600" xmlns="http://www.w3.org/2000/svg" xmlns:xlink="http://www.w3.org/1999/xlink" version="1.1"><g stroke-width="1" stroke-linejoin="bevel"><path d="M410 279L475 262L472 235Z" fill="#19435d" stroke="#19435d"></path><path d="M472 235L416 181L410 279Z" fill="#0c2435" stroke="#0c2435"></path><path d="M534 97L365 121L416 181Z" fill="#205a7a" stroke="#205a7a"></path><path d="M266 210L273 294L410 279Z" fill="#19435d" stroke="#19435d"></path><path d="M410 279L536 375L475 262Z" fill="#15384f" stroke="#15384f"></path><path d="M475 262L620 262L472 235Z" fill="#297ea6" stroke="#297ea6"></path><path d="M266 210L410 279L416 181Z" fill="#15384f" stroke="#15384f"></path><path d="M410 279L416 430L536 375Z" fill="#15384f" stroke="#15384f"></path><path d="M365 121L266 210L416 181Z" fill="#205a7a" stroke="#205a7a"></path><path d="M278 405L416 430L410 279Z" fill="#277297" stroke="#277297"></path><path d="M536 375L620 262L475 262Z" fill="#205a7a" stroke="#205a7a"></path><path d="M472 235L534 97L416 181Z" fill="#277297" stroke="#277297"></path><path d="M607 174L534 97L472 235Z" fill="#246688" stroke="#246688"></path><path d="M620 262L607 174L472 235Z" fill="#246688" stroke="#246688"></path><path d="M525 538L594 390L536 375Z" fill="#112e42" stroke="#112e42"></path><path d="M536 375L594 390L620 262Z" fill="#0c2435" stroke="#0c2435"></path><path d="M365 121L260 128L266 210Z" fill="#0c2435" stroke="#0c2435"></path><path d="M277 0L260 128L365 121Z" fill="#297ea6" stroke="#297ea6"></path><path d="M184 273L278 405L273 294Z" fill="#246688" stroke="#246688"></path><path d="M273 294L278 405L410 279Z" fill="#277297" stroke="#277297"></path><path d="M184 273L273 294L266 210Z" fill="#297ea6" stroke="#297ea6"></path><path d="M607 174L634 131L534 97Z" fill="#00101c" stroke="#00101c"></path><path d="M735 163L634 131L607 174Z" fill="#297ea6" stroke="#297ea6"></path><path d="M260 128L191 199L266 210Z" fill="#19435d" stroke="#19435d"></path><path d="M191 199L184 273L266 210Z" fill="#205a7a" stroke="#205a7a"></path><path d="M520 0L393 0L534 97Z" fill="#246688" stroke="#246688"></path><path d="M534 97L393 0L365 121Z" fill="#081a28" stroke="#081a28"></path><path d="M273 497L405 515L416 430Z" fill="#205a7a" stroke="#205a7a"></path><path d="M416 430L525 538L536 375Z" fill="#112e42" stroke="#112e42"></path><path d="M600 0L520 0L534 97Z" fill="#19435d" stroke="#19435d"></path><path d="M184 273L225 436L278 405Z" fill="#246688" stroke="#246688"></path><path d="M278 405L273 497L416 430Z" fill="#205a7a" stroke="#205a7a"></path><path d="M260 128L205 77L191 199Z" fill="#246688" stroke="#246688"></path><path d="M277 0L205 77L260 128Z" fill="#205a7a" stroke="#205a7a"></path><path d="M706 382L730 271L620 262Z" fill="#297ea6" stroke="#297ea6"></path><path d="M620 262L735 163L607 174Z" fill="#112e42" stroke="#112e42"></path><path d="M225 436L273 497L278 405Z" fill="#19435d" stroke="#19435d"></path><path d="M735 163L695 104L634 131Z" fill="#0c2435" stroke="#0c2435"></path><path d="M634 131L600 0L534 97Z" fill="#277297" stroke="#277297"></path><path d="M638 509L706 382L594 390Z" fill="#246688" stroke="#246688"></path><path d="M594 390L706 382L620 262Z" fill="#00101c" stroke="#00101c"></path><path d="M491 600L525 538L405 515Z" fill="#00101c" stroke="#00101c"></path><path d="M405 515L525 538L416 430Z" fill="#297ea6" stroke="#297ea6"></path><path d="M393 0L277 0L365 121Z" fill="#1d4e6b" stroke="#1d4e6b"></path><path d="M695 104L600 0L634 131Z" fill="#15384f" stroke="#15384f"></path><path d="M730 271L735 163L620 262Z" fill="#0c2435" stroke="#0c2435"></path><path d="M525 538L638 509L594 390Z" fill="#112e42" stroke="#112e42"></path><path d="M225 436L204 482L273 497Z" fill="#19435d" stroke="#19435d"></path><path d="M135 475L204 482L225 436Z" fill="#246688" stroke="#246688"></path><path d="M277 0L203 0L205 77Z" fill="#00101c" stroke="#00101c"></path><path d="M82 210L184 273L191 199Z" fill="#112e42" stroke="#112e42"></path><path d="M82 210L87 267L184 273Z" fill="#0c2435" stroke="#0c2435"></path><path d="M779 0L679 0L695 104Z" fill="#246688" stroke="#246688"></path><path d="M695 104L679 0L600 0Z" fill="#112e42" stroke="#112e42"></path><path d="M82 210L191 199L64 71Z" fill="#246688" stroke="#246688"></path><path d="M184 273L103 402L225 436Z" fill="#081a28" stroke="#081a28"></path><path d="M365 600L491 600L405 515Z" fill="#0c2435" stroke="#0c2435"></path><path d="M525 538L577 600L638 509Z" fill="#19435d" stroke="#19435d"></path><path d="M365 600L405 515L273 497Z" fill="#1d4e6b" stroke="#1d4e6b"></path><path d="M288 600L365 600L273 497Z" fill="#19435d" stroke="#19435d"></path><path d="M64 71L191 199L205 77Z" fill="#277297" stroke="#277297"></path><path d="M87 267L103 402L184 273Z" fill="#1d4e6b" stroke="#1d4e6b"></path><path d="M706 382L807 285L730 271Z" fill="#1d4e6b" stroke="#1d4e6b"></path><path d="M730 271L836 233L735 163Z" fill="#277297" stroke="#277297"></path><path d="M827 82L779 0L695 104Z" fill="#1d4e6b" stroke="#1d4e6b"></path><path d="M791 410L807 285L706 382Z" fill="#297ea6" stroke="#297ea6"></path><path d="M491 600L577 600L525 538Z" fill="#246688" stroke="#246688"></path><path d="M638 509L722 503L706 382Z" fill="#0c2435" stroke="#0c2435"></path><path d="M103 402L135 475L225 436Z" fill="#205a7a" stroke="#205a7a"></path><path d="M233 600L288 600L273 497Z" fill="#112e42" stroke="#112e42"></path><path d="M233 600L273 497L204 482Z" fill="#0c2435" stroke="#0c2435"></path><path d="M675 600L722 503L638 509Z" fill="#0c2435" stroke="#0c2435"></path><path d="M722 503L791 410L706 382Z" fill="#205a7a" stroke="#205a7a"></path><path d="M900 270L836 233L807 285Z" fill="#246688" stroke="#246688"></path><path d="M807 285L836 233L730 271Z" fill="#00101c" stroke="#00101c"></path><path d="M135 475L233 600L204 482Z" fill="#297ea6" stroke="#297ea6"></path><path d="M100 0L64 71L205 77Z" fill="#1d4e6b" stroke="#1d4e6b"></path><path d="M82 210L0 232L87 267Z" fill="#1d4e6b" stroke="#1d4e6b"></path><path d="M722 503L828 497L791 410Z" fill="#00101c" stroke="#00101c"></path><path d="M577 600L675 600L638 509Z" fill="#277297" stroke="#277297"></path><path d="M203 0L100 0L205 77Z" fill="#0c2435" stroke="#0c2435"></path><path d="M827 82L695 104L735 163Z" fill="#0c2435" stroke="#0c2435"></path><path d="M836 233L827 82L735 163Z" fill="#297ea6" stroke="#297ea6"></path><path d="M0 111L0 232L82 210Z" fill="#0c2435" stroke="#0c2435"></path><path d="M87 267L0 319L103 402Z" fill="#15384f" stroke="#15384f"></path><path d="M103 402L0 471L135 475Z" fill="#205a7a" stroke="#205a7a"></path><path d="M0 232L0 319L87 267Z" fill="#15384f" stroke="#15384f"></path><path d="M135 475L77 600L233 600Z" fill="#0c2435" stroke="#0c2435"></path><path d="M64 71L0 111L82 210Z" fill="#205a7a" stroke="#205a7a"></path><path d="M0 0L0 111L64 71Z" fill="#205a7a" stroke="#205a7a"></path><path d="M789 600L828 497L722 503Z" fill="#0c2435" stroke="#0c2435"></path><path d="M900 430L900 270L807 285Z" fill="#081a28" stroke="#081a28"></path><path d="M0 319L0 401L103 402Z" fill="#19435d" stroke="#19435d"></path><path d="M900 430L807 285L791 410Z" fill="#205a7a" stroke="#205a7a"></path><path d="M836 233L900 195L827 82Z" fill="#205a7a" stroke="#205a7a"></path><path d="M900 270L900 195L836 233Z" fill="#205a7a" stroke="#205a7a"></path><path d="M827 82L900 0L779 0Z" fill="#277297" stroke="#277297"></path><path d="M0 401L0 471L103 402Z" fill="#081a28" stroke="#081a28"></path><path d="M900 195L900 90L827 82Z" fill="#297ea6" stroke="#297ea6"></path><path d="M675 600L789 600L722 503Z" fill="#081a28" stroke="#081a28"></path><path d="M900 498L900 430L828 497Z" fill="#19435d" stroke="#19435d"></path><path d="M828 497L900 430L791 410Z" fill="#1d4e6b" stroke="#1d4e6b"></path><path d="M0 471L77 600L135 475Z" fill="#15384f" stroke="#15384f"></path><path d="M100 0L0 0L64 71Z" fill="#00101c" stroke="#00101c"></path><path d="M900 600L900 498L828 497Z" fill="#00101c" stroke="#00101c"></path><path d="M900 90L900 0L827 82Z" fill="#15384f" stroke="#15384f"></path><path d="M0 471L0 600L77 600Z" fill="#19435d" stroke="#19435d"></path><path d="M789 600L900 600L828 497Z" fill="#112e42" stroke="#112e42"></path></g></svg>