<svg id="visual" viewBox="0 0 900 600" width="900" height="600" xmlns="http://www.w3.org/2000/svg" xmlns:xlink="http://www.w3.org/1999/xlink" version="1.1"><g stroke-width="1" stroke-linejoin="bevel"><path d="M496 306L475 383L597 360Z" fill="#004991" stroke="#004991"></path><path d="M597 360L603 291L496 306Z" fill="#00407c" stroke="#00407c"></path><path d="M381 301L438 408L475 383Z" fill="#1063d1" stroke="#1063d1"></path><path d="M475 383L595 468L597 360Z" fill="#005bbb" stroke="#005bbb"></path><path d="M493 481L595 468L475 383Z" fill="#00407c" stroke="#00407c"></path><path d="M597 360L731 305L603 291Z" fill="#002d54" stroke="#002d54"></path><path d="M438 408L493 481L475 383Z" fill="#003768" stroke="#003768"></path><path d="M603 291L532 218L496 306Z" fill="#00407c" stroke="#00407c"></path><path d="M496 306L381 301L475 383Z" fill="#004991" stroke="#004991"></path><path d="M358 243L381 301L496 306Z" fill="#003768" stroke="#003768"></path><path d="M381 301L342 343L438 408Z" fill="#00101c" stroke="#00101c"></path><path d="M438 408L369 513L493 481Z" fill="#003768" stroke="#003768"></path><path d="M606 600L689 474L595 468Z" fill="#004991" stroke="#004991"></path><path d="M595 468L689 474L597 360Z" fill="#002d54" stroke="#002d54"></path><path d="M689 474L726 408L597 360Z" fill="#002440" stroke="#002440"></path><path d="M603 291L619 166L532 218Z" fill="#003768" stroke="#003768"></path><path d="M726 408L731 305L597 360Z" fill="#005bbb" stroke="#005bbb"></path><path d="M731 305L670 205L603 291Z" fill="#1063d1" stroke="#1063d1"></path><path d="M532 218L358 243L496 306Z" fill="#002440" stroke="#002440"></path><path d="M381 301L358 243L342 343Z" fill="#216ce7" stroke="#216ce7"></path><path d="M670 205L619 166L603 291Z" fill="#00407c" stroke="#00407c"></path><path d="M532 218L433 113L358 243Z" fill="#1063d1" stroke="#1063d1"></path><path d="M291 477L369 513L438 408Z" fill="#002440" stroke="#002440"></path><path d="M493 481L541 600L595 468Z" fill="#00407c" stroke="#00407c"></path><path d="M425 600L541 600L493 481Z" fill="#00407c" stroke="#00407c"></path><path d="M619 166L524 113L532 218Z" fill="#00101c" stroke="#00101c"></path><path d="M541 600L606 600L595 468Z" fill="#003768" stroke="#003768"></path><path d="M524 113L433 113L532 218Z" fill="#00101c" stroke="#00101c"></path><path d="M762 195L662 126L670 205Z" fill="#002440" stroke="#002440"></path><path d="M670 205L662 126L619 166Z" fill="#003768" stroke="#003768"></path><path d="M619 166L593 93L524 113Z" fill="#002d54" stroke="#002d54"></path><path d="M369 513L425 600L493 481Z" fill="#005bbb" stroke="#005bbb"></path><path d="M726 408L800 390L731 305Z" fill="#002440" stroke="#002440"></path><path d="M731 305L762 195L670 205Z" fill="#00101c" stroke="#00101c"></path><path d="M791 528L800 390L726 408Z" fill="#002440" stroke="#002440"></path><path d="M791 528L726 408L689 474Z" fill="#002d54" stroke="#002d54"></path><path d="M262 360L291 477L342 343Z" fill="#002d54" stroke="#002d54"></path><path d="M342 343L291 477L438 408Z" fill="#00101c" stroke="#00101c"></path><path d="M369 513L277 600L425 600Z" fill="#1063d1" stroke="#1063d1"></path><path d="M662 126L593 93L619 166Z" fill="#216ce7" stroke="#216ce7"></path><path d="M524 113L480 0L433 113Z" fill="#002440" stroke="#002440"></path><path d="M222 318L262 360L342 343Z" fill="#002440" stroke="#002440"></path><path d="M222 318L342 343L358 243Z" fill="#216ce7" stroke="#216ce7"></path><path d="M433 113L320 176L358 243Z" fill="#011b2d" stroke="#011b2d"></path><path d="M819 274L762 195L731 305Z" fill="#0052a6" stroke="#0052a6"></path><path d="M800 390L819 274L731 305Z" fill="#004991" stroke="#004991"></path><path d="M730 600L791 528L689 474Z" fill="#011b2d" stroke="#011b2d"></path><path d="M800 390L900 280L819 274Z" fill="#002d54" stroke="#002d54"></path><path d="M606 600L730 600L689 474Z" fill="#216ce7" stroke="#216ce7"></path><path d="M216 236L222 318L358 243Z" fill="#005bbb" stroke="#005bbb"></path><path d="M157 441L243 520L291 477Z" fill="#002d54" stroke="#002d54"></path><path d="M157 441L291 477L262 360Z" fill="#002d54" stroke="#002d54"></path><path d="M291 477L277 600L369 513Z" fill="#1063d1" stroke="#1063d1"></path><path d="M320 176L216 236L358 243Z" fill="#002440" stroke="#002440"></path><path d="M730 600L783 600L791 528Z" fill="#002440" stroke="#002440"></path><path d="M243 520L277 600L291 477Z" fill="#004991" stroke="#004991"></path><path d="M735 0L559 0L593 93Z" fill="#216ce7" stroke="#216ce7"></path><path d="M593 93L559 0L524 113Z" fill="#1063d1" stroke="#1063d1"></path><path d="M433 113L287 55L320 176Z" fill="#011b2d" stroke="#011b2d"></path><path d="M320 176L203 110L216 236Z" fill="#0052a6" stroke="#0052a6"></path><path d="M735 0L593 93L662 126Z" fill="#216ce7" stroke="#216ce7"></path><path d="M559 0L480 0L524 113Z" fill="#0052a6" stroke="#0052a6"></path><path d="M480 0L426 0L433 113Z" fill="#002440" stroke="#002440"></path><path d="M900 438L800 390L900 474Z" fill="#002440" stroke="#002440"></path><path d="M900 438L900 280L800 390Z" fill="#1063d1" stroke="#1063d1"></path><path d="M819 274L900 242L762 195Z" fill="#002440" stroke="#002440"></path><path d="M762 195L811 75L662 126Z" fill="#1063d1" stroke="#1063d1"></path><path d="M900 474L800 390L791 528Z" fill="#00407c" stroke="#00407c"></path><path d="M900 280L900 242L819 274Z" fill="#004991" stroke="#004991"></path><path d="M900 600L900 474L791 528Z" fill="#216ce7" stroke="#216ce7"></path><path d="M222 318L157 441L262 360Z" fill="#216ce7" stroke="#216ce7"></path><path d="M243 520L184 600L277 600Z" fill="#1063d1" stroke="#1063d1"></path><path d="M128 342L157 441L222 318Z" fill="#1063d1" stroke="#1063d1"></path><path d="M426 0L287 55L433 113Z" fill="#1063d1" stroke="#1063d1"></path><path d="M900 137L811 75L762 195Z" fill="#00101c" stroke="#00101c"></path><path d="M99 191L128 342L216 236Z" fill="#00407c" stroke="#00407c"></path><path d="M216 236L128 342L222 318Z" fill="#004991" stroke="#004991"></path><path d="M811 75L735 0L662 126Z" fill="#002d54" stroke="#002d54"></path><path d="M287 55L203 110L320 176Z" fill="#004991" stroke="#004991"></path><path d="M129 493L243 520L157 441Z" fill="#004991" stroke="#004991"></path><path d="M129 493L184 600L243 520Z" fill="#00101c" stroke="#00101c"></path><path d="M79 442L129 493L157 441Z" fill="#002d54" stroke="#002d54"></path><path d="M900 242L900 137L762 195Z" fill="#1063d1" stroke="#1063d1"></path><path d="M811 75L798 0L735 0Z" fill="#004991" stroke="#004991"></path><path d="M783 600L900 600L791 528Z" fill="#1063d1" stroke="#1063d1"></path><path d="M900 0L798 0L811 75Z" fill="#002d54" stroke="#002d54"></path><path d="M426 0L264 0L287 55Z" fill="#002440" stroke="#002440"></path><path d="M287 55L264 0L203 110Z" fill="#0052a6" stroke="#0052a6"></path><path d="M128 342L79 442L157 441Z" fill="#003768" stroke="#003768"></path><path d="M129 493L113 600L184 600Z" fill="#003768" stroke="#003768"></path><path d="M0 399L79 442L128 342Z" fill="#004991" stroke="#004991"></path><path d="M61 119L99 191L203 110Z" fill="#0052a6" stroke="#0052a6"></path><path d="M203 110L99 191L216 236Z" fill="#216ce7" stroke="#216ce7"></path><path d="M0 490L113 600L129 493Z" fill="#216ce7" stroke="#216ce7"></path><path d="M900 137L900 0L811 75Z" fill="#002440" stroke="#002440"></path><path d="M264 0L161 0L203 110Z" fill="#004991" stroke="#004991"></path><path d="M142 0L61 119L203 110Z" fill="#005bbb" stroke="#005bbb"></path><path d="M0 299L0 399L128 342Z" fill="#004991" stroke="#004991"></path><path d="M161 0L142 0L203 110Z" fill="#005bbb" stroke="#005bbb"></path><path d="M0 299L128 342L99 191Z" fill="#216ce7" stroke="#216ce7"></path><path d="M79 442L0 490L129 493Z" fill="#002440" stroke="#002440"></path><path d="M0 187L0 299L99 191Z" fill="#004991" stroke="#004991"></path><path d="M0 399L0 490L79 442Z" fill="#00407c" stroke="#00407c"></path><path d="M0 75L0 187L61 119Z" fill="#00101c" stroke="#00101c"></path><path d="M61 119L0 187L99 191Z" fill="#1063d1" stroke="#1063d1"></path><path d="M0 490L0 600L113 600Z" fill="#0052a6" stroke="#0052a6"></path><path d="M142 0L0 75L61 119Z" fill="#0052a6" stroke="#0052a6"></path><path d="M142 0L0 0L0 75Z" fill="#1063d1" stroke="#1063d1"></path></g></svg>